<?xml version="1.0" standalone="no"?>
<!DOCTYPE svg PUBLIC "-//W3C//DTD SVG 20010904//EN"
 "http://www.w3.org/TR/2001/REC-SVG-20010904/DTD/svg10.dtd">
<svg version="1.0" xmlns="http://www.w3.org/2000/svg"
 width="300.000000pt" height="300.000000pt" viewBox="0 0 300.000000 300.000000"
 preserveAspectRatio="xMidYMid meet">
<metadata>
Created by potrace 1.14, written by Peter Selinger 2001-2017
</metadata>
<g transform="translate(0.000000,300.000000) scale(0.100000,-0.100000)"
fill="#000000" stroke="none">
<path d="M1181 2843 c-48 -47 -72 -80 -79 -107 -6 -21 -18 -46 -26 -55 -8 -9
-16 -29 -18 -46 -2 -24 -8 -30 -28 -32 -48 -3 -68 -15 -77 -46 -8 -28 -13 -32
-41 -29 -26 2 -32 -2 -32 -18 0 -11 -6 -20 -12 -20 -53 -1 -133 -195 -133
-322 0 -25 -3 -44 -7 -41 -7 4 -9 -16 -13 -119 0 -21 3 -38 8 -38 5 0 7 -6 4
-14 -3 -7 0 -19 6 -25 8 -8 8 -11 -1 -11 -6 0 -9 -7 -6 -15 4 -8 1 -21 -4 -28
-6 -7 -8 -24 -5 -38 l7 -24 7 25 7 25 1 -25 c1 -20 3 -22 11 -10 9 13 10 13
11 0 10 -92 0 -136 -27 -126 -8 3 -14 -1 -14 -9 0 -8 5 -15 10 -15 6 0 10 -10
9 -22 0 -19 -2 -20 -7 -6 -6 15 -9 14 -19 -8 -9 -19 -8 -27 3 -39 8 -8 21 -12
28 -9 10 4 12 -2 10 -23 -4 -28 -4 -28 6 -4 6 14 9 30 6 37 -2 6 0 16 6 22 7
7 12 76 14 179 3 181 9 285 17 321 7 29 -1 29 -13 0 -8 -20 -9 -20 -6 7 3 17
5 34 5 38 1 5 5 6 9 3 5 -3 9 0 10 7 0 7 4 23 8 37 l7 25 -19 -20 c-10 -12
-15 -15 -10 -8 5 7 5 13 1 13 -4 0 -3 6 2 13 6 6 13 28 17 48 14 76 121 206
221 267 47 28 83 36 113 25 45 -17 254 18 287 48 5 6 5 13 -3 21 -17 17 -15
31 3 25 8 -4 17 -2 20 4 8 13 144 10 214 -5 75 -16 180 -79 287 -174 166 -146
232 -270 243 -462 1 -13 2 -13 11 0 11 17 13 63 3 73 -3 4 -8 33 -10 64 -4 58
-55 183 -74 183 -5 0 -9 7 -9 15 0 17 -127 165 -141 165 -6 0 -22 14 -36 30
-13 17 -30 30 -37 30 -7 0 -22 14 -34 30 -14 19 -32 30 -47 30 -16 0 -26 7
-31 23 -4 12 -33 48 -66 79 -69 67 -163 108 -244 108 -28 0 -64 4 -80 10 -16
5 -48 11 -71 13 -23 2 -46 6 -49 10 -17 16 -39 3 -103 -60z m-441 -1223 c0 -5
-2 -10 -4 -10 -3 0 -8 5 -11 10 -3 6 -1 10 4 10 6 0 11 -4 11 -10z"/>
<path d="M911 2221 c-8 -5 -11 -16 -8 -25 3 -8 2 -18 -3 -21 -6 -4 -10 1 -10
9 0 8 -5 18 -12 22 -6 4 -8 3 -4 -4 3 -6 2 -22 -3 -35 -7 -18 -7 -27 2 -31 7
-2 5 -5 -5 -5 -9 -1 -20 -5 -23 -11 -4 -6 1 -7 12 -3 14 5 16 4 8 -8 -9 -12
-11 -39 -6 -73 0 -5 7 -3 15 3 10 9 17 7 27 -6 13 -16 12 -17 -3 -4 -12 9 -18
10 -18 2 0 -6 7 -14 15 -17 8 -4 15 -10 15 -16 0 -5 -5 -6 -10 -3 -6 3 -19
-15 -31 -42 -11 -26 -24 -50 -29 -53 -24 -15 -40 -229 -28 -365 1 -11 -2 -31
-7 -45 l-8 -25 20 24 c14 17 22 21 27 13 4 -7 3 -12 -2 -12 -6 0 -8 -10 -5
-22 4 -19 3 -20 -6 -8 -12 17 -12 17 -17 -25 -2 -16 1 -34 7 -41 7 -8 6 -15
-2 -20 -8 -5 -9 -3 -4 6 5 8 4 11 -2 7 -15 -10 -22 -66 -8 -61 7 3 12 -2 12
-10 0 -8 -4 -13 -9 -10 -4 3 -8 0 -8 -6 0 -6 7 -13 15 -16 8 -4 12 -10 9 -15
-8 -13 -24 -11 -21 2 1 6 -6 13 -16 14 -20 4 -43 -30 -27 -40 6 -4 8 -10 5
-14 -2 -5 0 -22 4 -39 8 -25 6 -30 -5 -25 -9 3 -14 -1 -14 -12 0 -9 5 -13 10
-10 6 3 10 0 11 -7 1 -14 2 -20 17 -87 6 -25 8 -49 5 -55 -3 -5 -1 -6 4 -3 6
4 14 0 17 -9 4 -10 2 -13 -6 -8 -7 5 -8 3 -3 -7 5 -7 9 -29 8 -49 -1 -39 13
-73 27 -65 5 3 11 1 15 -5 3 -6 -1 -13 -10 -16 -14 -6 -13 -9 5 -26 18 -17 23
-18 37 -6 15 12 15 11 4 -11 -10 -18 -10 -25 0 -35 9 -8 10 -8 5 1 -5 8 -2 11
7 7 16 -6 11 -44 -5 -44 -5 0 -6 5 -3 10 3 6 2 10 -3 10 -17 0 -21 -13 -7 -26
7 -8 11 -22 8 -33 -7 -28 34 -39 52 -14 8 10 15 13 15 6 0 -6 -9 -18 -20 -26
-20 -14 -20 -14 1 -41 12 -15 19 -29 16 -32 -7 -7 42 -59 57 -60 6 -1 17 -2
25 -3 11 -1 11 -4 1 -16 -17 -20 -2 -38 26 -31 22 6 22 5 13 -24 -6 -16 -15
-30 -21 -30 -5 0 -7 -18 -2 -45 10 -68 0 -95 -35 -95 -40 0 -260 -60 -401
-109 -63 -22 -144 -43 -180 -47 -37 -4 -107 -23 -160 -44 -53 -21 -116 -41
-140 -45 -25 -4 -52 -11 -60 -16 -8 -5 301 -9 706 -9 l722 0 5 32 c2 18 1 38
-4 44 -5 6 -15 29 -23 52 -14 39 -14 42 4 52 11 6 20 20 20 31 0 11 10 23 24
29 13 5 27 18 31 29 3 12 15 26 26 31 10 6 19 16 19 22 0 6 8 17 18 24 9 7 13
13 7 14 -15 0 -67 -36 -65 -46 1 -5 -4 -10 -10 -12 -12 -4 -3 46 11 62 13 14
11 26 -5 26 -9 0 -12 9 -10 28 3 24 2 22 -14 -10 -21 -47 -28 -48 -29 -3 -1
25 4 36 18 40 14 5 19 16 19 46 0 21 4 39 9 39 5 0 13 9 16 20 4 11 11 17 17
14 7 -5 8 -2 2 7 -11 18 -12 29 -2 56 4 14 2 35 -7 55 -8 18 -14 26 -15 18 0
-8 -9 0 -20 18 -11 18 -25 30 -30 27 -6 -4 -7 1 -3 11 5 15 7 15 15 0 11 -19
39 -22 35 -3 -1 6 6 11 16 11 9 -1 17 1 17 6 0 4 11 12 25 18 27 13 45 -2 26
-21 -8 -8 -11 -8 -11 1 0 7 -5 12 -12 12 -9 0 -9 -3 -1 -11 6 -6 9 -19 6 -28
-4 -13 -3 -13 5 -2 5 7 12 9 14 5 3 -5 3 -3 2 4 -2 6 1 12 5 12 5 0 12 -6 15
-12 3 -7 3 -3 0 10 -7 28 15 60 27 40 6 -9 9 -3 10 17 0 23 2 26 8 12 6 -17 8
-17 20 -3 8 9 9 16 3 16 -5 0 -8 10 -6 22 4 20 3 21 -4 4 -6 -14 -11 -16 -16
-7 -4 6 -3 18 3 25 9 10 7 15 -6 20 -10 4 -18 6 -18 5 0 -1 -10 3 -23 10 -12
7 -53 14 -90 16 -123 8 -206 16 -210 20 -3 2 12 12 32 21 23 12 32 21 27 28
-15 18 222 18 292 1 33 -8 62 -13 67 -10 4 3 14 -2 21 -11 10 -13 10 -17 -2
-25 -11 -7 -9 -9 9 -9 12 0 22 -4 22 -10 0 -5 8 -6 18 -3 15 6 15 5 3 -10 -12
-15 -12 -17 4 -11 13 5 16 4 11 -4 -4 -7 -1 -15 8 -18 9 -3 16 -14 16 -24 0
-11 5 -22 10 -25 6 -3 10 0 10 7 0 9 3 9 10 -2 7 -11 10 -3 11 30 1 25 0 56
-1 69 -1 14 2 21 9 17 5 -4 15 3 21 14 6 11 16 17 22 14 7 -4 8 -3 4 4 -4 6
-12 9 -19 6 -8 -3 -13 6 -15 23 -1 14 -10 38 -19 52 -10 14 -18 29 -18 32 0 8
-62 69 -70 69 -3 0 -1 -9 5 -19 14 -28 13 -36 -5 -21 -8 6 -13 17 -12 23 1 7
-6 11 -15 9 -13 -2 -16 2 -11 14 4 11 3 15 -4 11 -6 -4 -18 -1 -26 7 -8 8 -26
18 -41 22 -15 3 -26 13 -26 23 0 14 -2 14 -11 1 -8 -12 -9 -7 -6 18 4 36 5 36
-77 22 -64 -10 -75 -8 -58 13 6 7 13 29 14 48 3 31 -1 36 -39 55 -42 21 -82
54 -66 54 4 0 0 5 -9 11 -19 11 -127 -28 -160 -58 -17 -15 -18 -15 -18 0 0 10
5 17 11 17 5 0 8 4 4 9 -7 12 34 41 57 41 10 0 18 5 18 11 0 5 4 8 9 5 5 -3
11 3 14 14 4 14 0 20 -11 21 -14 0 -13 2 3 9 11 5 14 9 7 9 -7 1 -29 -6 -49
-14 -44 -18 -43 -18 -43 0 0 8 5 15 10 15 6 0 10 8 10 18 -1 14 -4 13 -20 -7
-11 -13 -20 -18 -20 -13 0 6 5 14 10 17 6 4 7 11 4 17 -4 7 -2 8 4 4 10 -6 16
4 14 24 0 3 9 7 21 7 20 2 20 1 5 -8 -10 -6 -18 -15 -18 -20 0 -6 4 -8 9 -5 5
4 11 3 14 -1 2 -5 2 -3 1 4 -2 7 1 15 7 19 6 3 8 12 6 18 -3 7 1 13 9 13 8 0
14 -8 14 -17 0 -9 6 -17 14 -17 8 0 12 5 10 12 -3 6 4 20 14 30 10 11 22 29
27 40 12 29 14 76 3 69 -6 -4 -5 3 1 14 6 12 7 23 2 26 -17 11 -19 90 -3 118
12 20 13 35 6 59 -13 44 -33 49 -40 10 -4 -17 -10 -34 -15 -37 -7 -4 -55 53
-79 96 -7 11 -12 12 -21 3 -13 -13 -76 -6 -96 10 -7 5 -13 6 -13 1 0 -5 -5 -1
-11 9 -6 9 -14 15 -20 12 -5 -3 -6 1 -3 10 4 9 2 15 -3 13 -6 -2 -20 8 -32 22
-13 14 -19 19 -15 11 5 -9 3 -12 -4 -7 -7 4 -12 13 -12 20 0 13 -55 28 -65 17
-12 -11 -37 -9 -42 5 -3 8 -10 11 -16 7 -5 -3 -7 -1 -3 5 3 6 2 13 -4 17 -6 4
-8 11 -5 16 11 16 -7 9 -21 -8 -12 -16 -12 -16 -7 5 6 23 -3 28 -26 13z m269
-422 c0 -5 -7 -9 -15 -9 -8 0 -15 7 -15 15 0 9 6 12 15 9 8 -4 15 -10 15 -15z
m50 -33 c0 -8 -6 -16 -14 -19 -10 -4 -12 0 -9 14 6 22 23 26 23 5z m-118 -189
c-15 -17 -2 -36 28 -41 14 -2 24 -9 23 -15 -3 -10 23 -16 54 -12 9 1 11 -14 4
-36 -1 -2 0 -4 1 -5 1 -2 -5 -14 -12 -28 -8 -14 -13 -30 -12 -35 3 -16 -54
-75 -72 -75 -9 0 -16 -5 -16 -11 0 -6 -9 -9 -20 -6 -10 3 -21 0 -23 -7 -3 -7
-9 -6 -22 4 -10 8 -16 10 -12 4 4 -7 -6 -10 -28 -10 -18 1 -31 5 -28 11 2 6
-3 1 -13 -10 -15 -18 -16 -19 -10 -1 6 16 3 18 -24 13 -31 -7 -38 1 -19 20 9
9 8 11 -2 10 -8 -2 -19 -6 -25 -10 -14 -8 -14 61 0 82 6 10 6 12 -2 7 -7 -4
-12 -1 -12 9 0 9 4 14 9 11 10 -6 25 24 16 32 -3 3 -5 0 -5 -7 0 -7 -4 -10 -9
-7 -5 4 -4 16 2 30 7 13 15 22 19 20 5 -3 8 -1 8 5 0 5 11 22 25 37 24 26 25
26 25 5 0 -11 4 -21 9 -21 5 0 7 10 3 22 -4 16 -2 19 8 13 18 -11 80 -13 80
-3 0 5 4 7 8 4 4 -2 14 -1 22 5 22 13 34 11 22 -4z m41 -2 c4 -8 1 -17 -5 -21
-7 -5 -8 -2 -3 6 6 9 2 10 -15 5 -20 -6 -21 -5 -9 8 18 20 25 21 32 2z m-233
-6 c0 -3 -9 -9 -19 -12 -13 -3 -18 0 -15 7 5 13 34 18 34 5z m-80 -153 c0 -3
-4 -8 -10 -11 -5 -3 -10 -1 -10 4 0 6 5 11 10 11 6 0 10 -2 10 -4z m50 -100
c0 -3 -4 -8 -10 -11 -5 -3 -10 -1 -10 4 0 6 5 11 10 11 6 0 10 -2 10 -4z m238
-128 c-4 -19 -30 -36 -46 -31 -7 3 -19 -3 -27 -13 -8 -11 -15 -14 -15 -8 0 17
28 37 43 31 7 -3 19 4 25 14 14 22 23 25 20 7z m324 -45 c-3 -16 -7 -22 -10
-15 -4 13 4 42 11 42 2 0 2 -12 -1 -27z m-321 3 c-9 -11 -9 -15 1 -19 7 -2 0
-4 -17 -4 -16 0 -24 2 -17 4 6 3 12 11 12 19 0 8 7 14 16 14 13 0 14 -3 5 -14z
m39 10 c0 -3 -4 -8 -10 -11 -5 -3 -10 -1 -10 4 0 6 5 11 10 11 6 0 10 -2 10
-4z m-140 -54 c0 -4 -9 -13 -20 -20 -19 -12 -20 -11 -8 8 13 20 28 27 28 12z
m909 -72 c0 -10 -3 -8 -9 5 -12 27 -12 43 0 25 5 -8 9 -22 9 -30z m-945 -22
c-5 -7 -9 -16 -9 -20 0 -3 -3 -10 -7 -14 -9 -8 -2 31 7 47 4 6 9 8 12 5 3 -2
1 -11 -3 -18z m47 -158 c6 0 7 -5 3 -11 -8 -14 -24 8 -23 31 1 11 3 10 6 -2 2
-10 9 -18 14 -18z m49 -27 c0 -3 -4 -12 -9 -21 -7 -14 -4 -17 17 -17 15 -1 30
4 35 10 4 5 6 -1 5 -15 -3 -29 -33 -56 -74 -66 -26 -6 -28 -6 -16 9 11 13 10
16 -10 20 -15 3 -12 4 8 3 20 -1 31 3 31 12 0 9 -8 11 -23 8 -18 -5 -22 -3
-18 9 3 8 10 12 15 9 5 -3 6 2 3 11 -4 9 -13 14 -20 11 -8 -3 -14 -1 -14 4 0
5 10 10 23 12 32 5 47 5 47 1z m260 -67 c0 -11 -19 -15 -25 -6 -3 5 1 10 9 10
9 0 16 -2 16 -4z m45 -27 c-5 -13 -3 -19 3 -15 5 3 13 -1 16 -10 4 -12 2 -15
-9 -10 -18 6 -50 -37 -40 -54 5 -8 15 -4 31 11 13 12 24 17 24 11 0 -7 -5 -12
-10 -12 -7 0 -7 -7 0 -22 10 -21 10 -22 -3 -5 -9 11 -18 14 -21 8 -4 -6 -13
-8 -22 -4 -12 4 -14 0 -8 -21 5 -21 3 -25 -10 -20 -18 7 -20 -5 -16 -95 1 -33
-2 -51 -8 -47 -9 5 -71 -20 -82 -34 -12 -16 -40 -19 -40 -5 0 8 7 15 15 15 8
0 15 4 15 10 0 16 -28 0 -45 -26 -9 -14 -13 -29 -10 -34 3 -6 -1 -10 -10 -10
-9 0 -13 5 -10 10 10 16 -18 70 -35 70 -9 0 -4 9 15 24 17 13 27 28 23 32 -5
4 -8 3 -8 -3 0 -14 -49 -8 -64 8 -8 8 -8 13 2 16 6 3 12 9 12 15 0 6 11 19 24
29 27 22 41 58 20 55 -7 -1 -17 -6 -21 -11 -4 -4 -2 -5 5 0 24 13 9 -26 -15
-43 -22 -14 -23 -13 -23 16 0 17 -5 34 -11 38 -8 4 -9 0 -4 -15 7 -23 5 -24
-19 -15 -24 9 -1 44 29 44 26 0 34 15 13 23 -8 3 -6 6 4 6 9 1 27 12 40 25 17
18 28 22 43 16 11 -5 14 -9 7 -9 -7 -1 -11 -5 -7 -11 3 -5 13 -7 23 -4 21 6
-16 -12 -43 -21 -16 -5 -17 -8 -5 -15 16 -10 54 10 80 42 11 14 29 19 66 20
56 0 67 4 77 31 9 25 20 21 12 -4z m55 17 c0 -3 -4 -8 -10 -11 -5 -3 -10 -1
-10 4 0 6 5 11 10 11 6 0 10 -2 10 -4z m27 -18 c-3 -8 -6 -5 -6 6 -1 11 2 17
5 13 3 -3 4 -12 1 -19z m-150 -4 c-3 -3 -12 -4 -19 -1 -8 3 -5 6 6 6 11 1 17
-2 13 -5z m-187 -19 c0 -1 -10 -10 -23 -18 -19 -12 -24 -13 -24 -2 0 8 4 12 9
9 4 -3 8 2 8 10 0 10 6 13 15 10 8 -4 15 -7 15 -9z m375 5 c-3 -5 -12 -10 -18
-10 -7 0 -6 4 3 10 19 12 23 12 15 0z m29 -34 c-3 -9 -12 -16 -20 -16 -15 0
-8 -30 10 -42 7 -5 7 -8 -1 -8 -7 0 -13 -9 -13 -20 0 -11 4 -20 9 -20 14 0 9
-39 -6 -44 -8 -3 -10 1 -6 11 4 10 2 14 -3 10 -9 -5 -11 56 -5 130 1 6 9 13
19 15 22 5 24 4 16 -16z m-476 -11 c-1 -14 -7 -24 -13 -22 -13 5 -14 30 0 39
15 11 15 10 13 -17z m516 -17 c-4 -6 -10 -5 -15 3 -14 22 -10 33 6 19 8 -7 12
-17 9 -22z m-92 -17 c3 -22 0 -31 -14 -34 -11 -3 -18 -14 -18 -29 0 -18 -2
-20 -10 -8 -5 9 -5 19 1 26 6 7 6 15 1 18 -5 3 -7 18 -4 33 5 27 5 27 14 4 4
-13 5 -28 1 -33 -3 -7 -1 -8 5 -4 6 3 9 20 7 36 -5 39 11 30 17 -9z m80 -37
c-6 -31 -9 -30 -14 5 -3 19 0 27 7 24 7 -2 10 -15 7 -29z m-172 -14 c-6 -11
-8 -20 -4 -20 3 0 1 -7 -6 -15 -17 -21 -30 -19 -30 5 0 11 6 20 14 20 8 0 16
7 20 15 3 8 8 15 11 15 3 0 1 -9 -5 -20z m90 -60 c-8 -5 -8 -11 3 -21 10 -10
12 -27 8 -57 -3 -24 -9 -41 -13 -40 -4 2 -14 -6 -22 -17 -15 -19 -15 -19 -16
11 0 19 6 34 15 38 8 3 15 11 15 18 0 9 -3 8 -10 -2 -8 -13 -10 -12 -10 3 0
12 -4 15 -12 11 -6 -4 -2 8 10 28 12 19 19 38 15 42 -4 4 1 4 11 0 12 -5 14
-9 6 -14z m-71 -32 c15 -33 16 -46 7 -60 -9 -15 -8 -21 4 -28 12 -7 8 -11 -17
-16 -18 -4 -33 -11 -33 -17 0 -6 -3 -7 -7 -4 -3 4 4 19 18 34 13 15 16 21 7
14 -31 -24 -49 -6 -47 44 3 47 12 64 24 44 4 -6 3 -15 -3 -21 -7 -7 -7 -18 0
-34 12 -26 22 -24 39 8 6 12 7 18 1 14 -11 -7 -22 16 -22 45 0 29 8 23 29 -23z
m-135 -89 c-12 -13 -20 -16 -22 -9 -3 7 2 16 9 21 25 16 32 9 13 -12z m66 1
c0 -5 -7 -10 -16 -10 -8 0 -12 5 -9 10 3 6 10 10 16 10 5 0 9 -4 9 -10z m-260
-10 c0 -5 -4 -10 -10 -10 -5 0 -10 5 -10 10 0 6 5 10 10 10 6 0 10 -4 10 -10z
m160 -54 c0 -3 -4 -8 -10 -11 -5 -3 -10 -1 -10 4 0 6 5 11 10 11 6 0 10 -2 10
-4z m40 -42 c0 -8 -4 -12 -10 -9 -5 3 -10 10 -10 16 0 5 5 9 10 9 6 0 10 -7
10 -16z"/>
<path d="M1099 753 c-13 -16 -12 -17 4 -4 9 7 17 15 17 17 0 8 -8 3 -21 -13z"/>
<path d="M1343 668 c-18 -38 -23 -57 -14 -62 4 -3 8 0 8 7 1 21 8 42 17 48 5
4 7 12 4 19 -2 7 -9 2 -15 -12z"/>
<path d="M1245 640 c-4 -12 -5 -24 -2 -27 3 -2 8 5 12 17 4 12 5 24 2 27 -3 2
-8 -5 -12 -17z"/>
<path d="M1205 591 c-3 -5 -1 -12 4 -15 5 -3 11 1 15 9 6 16 -9 21 -19 6z"/>
<path d="M1277 479 c-10 -11 -16 -23 -13 -26 8 -8 38 25 34 37 -2 6 -11 1 -21
-11z"/>
<path d="M1157 437 l-4 -31 18 23 c23 28 24 38 5 38 -8 0 -16 -13 -19 -30z"/>
<path d="M980 2208 c0 -9 5 -20 10 -23 13 -8 13 5 0 25 -8 13 -10 13 -10 -2z"/>
<path d="M1006 2172 c-3 -5 1 -9 9 -9 8 0 12 4 9 9 -3 4 -7 8 -9 8 -2 0 -6 -4
-9 -8z"/>
<path d="M1623 2024 c-15 -7 -17 -34 -3 -34 6 0 10 -7 10 -16 0 -9 -5 -13 -12
-9 -7 4 -5 0 4 -8 10 -8 15 -17 11 -20 -3 -4 -2 -7 4 -7 7 0 11 -24 11 -62 -1
-43 4 -64 14 -72 16 -12 18 -17 18 -41 0 -8 11 -17 25 -21 14 -3 22 -10 19
-15 -3 -5 0 -9 7 -9 6 0 18 -8 26 -17 8 -10 12 -13 9 -7 -4 8 10 10 44 6 28
-2 50 0 50 5 0 5 -12 9 -27 10 -56 1 -64 3 -58 13 3 5 24 7 46 4 35 -5 43 -2
68 25 19 20 35 29 45 25 19 -7 21 -20 4 -27 -7 -3 -1 -6 15 -6 15 -1 27 -5 27
-9 0 -4 8 -8 18 -8 9 -1 26 -5 37 -9 16 -7 14 -2 -10 27 -29 34 -95 82 -145
105 -24 11 -23 11 18 12 35 1 48 -5 72 -28 15 -17 31 -39 34 -49 6 -18 44 -42
67 -42 5 0 2 17 -7 38 -9 20 -18 46 -19 58 -1 11 -5 26 -9 32 -4 8 -3 11 4 10
23 -6 18 33 -6 49 -14 8 -22 18 -19 21 10 10 -17 31 -32 25 -12 -5 -14 -3 -8
7 6 10 4 12 -8 7 -9 -3 -17 -1 -20 6 -2 6 -20 11 -40 11 -19 0 -34 2 -32 6 2
3 -16 6 -38 6 -23 1 -78 4 -122 8 -44 3 -86 3 -92 0z m382 -64 c3 -5 1 -10 -4
-10 -6 0 -11 5 -11 10 0 6 2 10 4 10 3 0 8 -4 11 -10z m-125 -167 c0 -20 -24
-11 -28 10 -2 12 1 15 12 11 9 -3 16 -13 16 -21z"/>
<path d="M747 1793 c-4 -3 -7 -11 -7 -17 0 -6 5 -5 12 2 6 6 9 14 7 17 -3 3
-9 2 -12 -2z"/>
<path d="M742 1735 c0 -16 2 -22 5 -12 2 9 2 23 0 30 -3 6 -5 -1 -5 -18z"/>
<path d="M2267 1573 c-10 -10 -8 -56 3 -73 7 -11 10 -2 10 33 0 48 -1 52 -13
40z"/>
<path d="M671 1498 c2 -96 14 -115 28 -47 9 43 9 62 0 83 -20 43 -29 30 -28
-36z"/>
<path d="M741 1524 c0 -11 3 -14 6 -6 3 7 2 16 -1 19 -3 4 -6 -2 -5 -13z"/>
<path d="M702 1389 c-7 -11 -16 -43 -19 -70 -6 -48 -5 -49 26 -60 27 -10 45
-39 23 -39 -5 0 -15 -11 -22 -25 -10 -20 -11 -27 0 -40 14 -17 32 -11 24 9 -3
7 2 16 11 20 10 3 14 13 11 23 -3 10 -8 38 -11 62 -3 25 -10 51 -16 57 -6 7
-9 29 -6 49 5 40 -2 45 -21 14z"/>
<path d="M1645 1390 c-12 -4 -27 -15 -34 -24 -11 -13 -10 -17 11 -25 23 -9 69
-14 94 -12 22 2 24 31 4 51 -21 21 -42 24 -75 10z"/>
<path d="M1847 1309 c22 -38 145 -180 151 -174 8 8 -39 92 -66 118 -15 15 -40
40 -57 57 -39 39 -51 38 -28 -1z"/>
<path d="M1838 1198 c6 -6 18 -8 28 -6 14 3 12 5 -9 10 -19 3 -25 2 -19 -4z"/>
<path d="M2180 1190 c-8 -11 -20 -18 -27 -16 -7 3 -12 2 -11 -2 1 -4 -5 -21
-15 -38 -9 -17 -21 -58 -26 -90 -6 -33 -12 -68 -14 -79 -2 -11 -2 -14 0 -7 8
21 21 3 16 -21 -3 -12 -3 -19 1 -16 11 10 15 69 5 69 -6 0 -3 7 6 16 10 10 12
20 6 28 -6 7 -4 15 4 23 11 10 15 10 19 0 3 -7 3 11 1 38 -3 30 -1 45 4 36 6
-10 10 -10 16 -1 4 6 4 14 1 17 -3 4 4 17 16 30 12 12 19 25 17 28 -3 2 -11
-5 -19 -15z"/>
<path d="M1890 1167 c0 -10 8 -17 18 -17 9 0 13 4 7 8 -5 4 -13 11 -17 16 -5
5 -8 2 -8 -7z"/>
<path d="M1985 1100 c3 -5 2 -17 -3 -26 -11 -19 -4 -54 10 -54 5 0 6 5 3 10
-3 6 -1 10 4 10 6 0 11 5 11 11 0 5 -4 7 -10 4 -5 -3 -10 1 -10 10 0 12 5 15
17 11 15 -6 15 -4 -2 14 -19 21 -30 27 -20 10z"/>
<path d="M2155 1100 c-3 -5 -1 -10 4 -10 6 0 11 5 11 10 0 6 -2 10 -4 10 -3 0
-8 -4 -11 -10z"/>
<path d="M2151 1004 c0 -11 3 -14 6 -6 3 7 2 16 -1 19 -3 4 -6 -2 -5 -13z"/>
<path d="M2027 940 c3 -11 0 -20 -6 -20 -16 0 -13 -17 5 -24 8 -3 12 -2 9 4
-3 6 -2 10 3 10 11 0 4 38 -8 45 -5 3 -6 -4 -3 -15z"/>
<path d="M2060 908 c0 -13 5 -30 10 -38 7 -11 10 -7 10 17 0 17 -4 35 -10 38
-6 3 -10 -4 -10 -17z"/>
<path d="M2001 855 c-20 -51 -21 -55 -11 -55 6 0 10 9 10 19 0 11 5 21 11 23
6 2 9 13 7 23 -4 17 -7 16 -17 -10z"/>
<path d="M1960 837 c0 -10 -4 -15 -10 -12 -5 3 -10 2 -10 -3 0 -6 6 -12 14
-15 18 -7 27 15 15 34 -7 11 -9 10 -9 -4z"/>
<path d="M2000 690 c0 -5 5 -10 11 -10 5 0 7 5 4 10 -3 6 -8 10 -11 10 -2 0
-4 -4 -4 -10z"/>
<path d="M1650 530 c0 -5 5 -10 10 -10 6 0 10 5 10 10 0 6 -4 10 -10 10 -5 0
-10 -4 -10 -10z"/>
<path d="M1570 446 c0 -9 5 -16 10 -16 6 0 10 4 10 9 0 6 -4 13 -10 16 -5 3
-10 -1 -10 -9z"/>
<path d="M1650 436 c0 -9 5 -16 10 -16 6 0 10 4 10 9 0 6 -4 13 -10 16 -5 3
-10 -1 -10 -9z"/>
<path d="M2405 347 c46 -27 93 -86 99 -124 9 -50 -8 -168 -29 -199 l-15 -24
270 0 270 0 0 119 c0 138 12 125 -125 141 -97 12 -97 12 -195 40 -111 31 -240
60 -268 59 -25 0 -26 -1 -7 -12z"/>
<path d="M1616 293 c-6 -14 -5 -15 5 -6 7 7 10 15 7 18 -3 3 -9 -2 -12 -12z"/>
</g>
</svg>
